<svg width="307" height="35" viewBox="0 0 307 35" fill="none" xmlns="http://www.w3.org/2000/svg">
<path d="M13.8039 1.25242C16.0689 1.18588 18.332 1.43657 20.5249 1.99691C21.9483 2.36649 23.2502 3.09058 24.3045 4.09898C25.1736 4.9905 25.7581 6.11188 25.9859 7.32509C26.4765 10.0614 26.4765 12.8608 25.9859 15.5971C25.7563 16.8069 25.1719 17.9247 24.3045 18.8135C23.244 19.8255 21.938 20.5557 20.51 20.9351C18.3201 21.5125 16.0556 21.7715 13.7891 21.7039H4.41944V32.8566H0V1.25242H13.8039ZM14.1263 19.8451C15.6319 19.896 17.1343 19.6783 18.5607 19.2028C19.5575 18.8574 20.4427 18.2579 21.125 17.4657C21.7234 16.7184 22.1238 15.8374 22.2907 14.9013C22.485 13.8596 22.5797 12.8024 22.5734 11.7433C22.5774 10.6885 22.5227 9.63432 22.4097 8.58536C22.3208 7.66591 21.9778 6.7877 21.4177 6.04535C20.765 5.25089 19.8888 4.66205 18.898 4.35201C17.3514 3.88128 15.7345 3.67231 14.1164 3.73404H4.41944V19.8451H14.1263Z" fill="#34343A"/>
<path d="M77.8088 33.4792L75.1453 25.9468L75.0957 25.9954C74.354 24.5709 73.3285 23.3067 72.0799 22.2778C71.0312 21.4495 69.821 20.8401 68.5236 20.4872C67.2194 20.1467 65.8677 20.0152 64.5208 20.0979C63.0251 20.1836 61.535 20.346 60.0567 20.5845L56.783 28.5257H54.3972L57.5369 21.4312C55.9663 21.6939 54.346 21.9194 52.6761 22.1075C50.9702 22.2952 49.2516 22.3456 47.5374 22.2584C45.7212 22.1621 43.9197 21.8849 42.1607 21.4312C40.2207 20.9206 38.3639 20.1441 36.645 19.1247V30.9976H61.2818V33.4792H32.2405V1.2522H53.7177V3.73381H36.0052V14.6043C37.3416 16.1162 39.0221 17.298 40.9107 18.0542C42.6797 18.7313 44.5494 19.1208 46.4462 19.2074C48.4215 19.2975 50.4011 19.2046 52.3586 18.9301L58.3405 18.1029L65.2846 1.2522H70.4927L81.8414 33.4792H77.8088ZM61.2521 17.6406C63.308 17.3981 65.3836 17.3606 67.4472 17.5287C69.4106 17.6872 71.2947 18.3594 72.9033 19.4751L67.1992 3.24236L61.2521 17.6406Z" fill="#34343A"/>
<path d="M114.082 11.4418C114.086 12.5208 114.013 13.5988 113.864 14.6679C113.734 15.6282 113.434 16.5588 112.976 17.4171C112.507 18.2637 111.849 18.9955 111.052 19.5581C110.034 20.2481 108.893 20.7434 107.689 21.0179L114.082 32.8567H108.13L102.743 21.704H96.578C94.9065 21.7332 93.0316 21.7478 90.9632 21.7478V32.8567H86.5388V1.25255H100.958C103.321 1.18557 105.682 1.43605 107.976 1.99704C109.457 2.35849 110.822 3.07969 111.944 4.09425C112.845 4.97107 113.455 6.09357 113.695 7.31549C113.964 8.67487 114.093 10.0572 114.082 11.4418ZM100.69 19.8452C102.196 19.8961 103.698 19.6785 105.124 19.2029C106.088 18.8898 106.946 18.3231 107.605 17.5647C108.264 16.8062 108.697 15.885 108.859 14.9015C109.049 13.8593 109.142 12.8022 109.137 11.7435C109.141 10.6887 109.086 9.63445 108.973 8.58549C108.882 7.66649 108.54 6.78878 107.981 6.04548C107.328 5.25207 106.452 4.66348 105.462 4.35214C103.913 3.88152 102.295 3.67255 100.675 3.73417H90.9632V19.8452H100.69Z" fill="#34343A"/>
<path d="M141.497 33.4792H119.389V1.2522H123.809V30.9976H141.497V33.4792Z" fill="#34343A"/>
<path d="M164.372 8.44444C164.353 9.47059 164.704 10.4704 165.364 11.2667C166.106 12.136 167.001 12.8663 168.008 13.4223C169.195 14.0961 170.438 14.6706 171.723 15.1399C173.105 15.6622 174.524 16.191 175.979 16.7262C177.427 17.2566 178.841 17.8162 180.23 18.3952C181.528 18.929 182.759 19.6065 183.9 20.4146C184.906 21.1236 185.769 22.0096 186.445 23.0276C187.1 24.0722 187.404 25.2929 187.313 26.5165C187.309 27.8166 186.967 29.0943 186.321 30.2292C185.671 31.2451 184.738 32.0573 183.632 32.5697C182.238 33.2108 180.747 33.6281 179.218 33.8056C177.164 34.0668 175.094 34.1887 173.023 34.1706C171.318 34.1915 169.616 34.0151 167.953 33.6451C166.582 33.3371 165.266 32.8269 164.05 32.1317C162.952 31.4949 161.959 30.6993 161.104 29.7718C160.238 28.8236 159.47 27.7934 158.812 26.6965L162.413 25.6406C162.833 26.5635 163.35 27.4409 163.956 28.2585C164.551 29.057 165.277 29.754 166.103 30.3216C167.012 30.932 168.018 31.3892 169.079 31.6743C170.372 32.0181 171.708 32.1819 173.047 32.1609C174.701 32.1896 176.353 32.051 177.978 31.7473C179.065 31.5508 180.105 31.1546 181.043 30.5795C181.74 30.129 182.29 29.4925 182.63 28.7451C182.944 27.9786 183.112 27.1623 183.126 26.3364C183.146 25.9094 183.075 25.483 182.918 25.0843C182.761 24.6856 182.521 24.3232 182.214 24.0202C181.465 23.2866 180.597 22.6813 179.644 22.2296C178.447 21.6482 177.213 21.1427 175.949 20.7163C174.56 20.2297 173.147 19.7431 171.693 19.2565C170.24 18.7699 168.826 18.1957 167.443 17.5826C166.126 17.0118 164.88 16.2968 163.727 15.4514C162.67 14.6755 161.773 13.7094 161.084 12.6048C160.423 11.445 160.078 10.1375 160.082 8.80862C160.086 7.47977 160.44 6.17447 161.109 5.01883C161.82 3.88957 162.798 2.94492 163.961 2.26471C165.307 1.48026 166.775 0.914982 168.306 0.590841C170.116 0.196052 171.967 0.00343139 173.821 0.0166589C175.466 -0.0107586 177.108 0.167469 178.707 0.547043C179.941 0.848264 181.115 1.35165 182.179 2.03601C183.133 2.66659 183.957 3.4671 184.609 4.39599C185.293 5.38368 185.873 6.43686 186.341 7.53938L182.928 8.36658C182.671 7.47616 182.318 6.61495 181.876 5.79738C181.454 5.04481 180.883 4.38297 180.195 3.85101C179.421 3.26573 178.541 2.82983 177.601 2.5664C176.367 2.23477 175.09 2.08069 173.811 2.10901C172.153 2.05902 170.497 2.26761 168.906 2.72698C167.843 3.03572 166.862 3.56698 166.029 4.28407C165.403 4.84034 164.943 5.55367 164.7 6.34722C164.493 7.02836 164.383 7.73399 164.372 8.44444Z" fill="#34343A"/>
<path d="M212.48 24.8033H196.008L192.451 33.4792H189.927L203.319 1.2522H208.527L219.881 33.4792H215.536L212.48 24.8033ZM211.627 22.3216L204.896 3.19857L197 22.3216H211.627Z" fill="#34343A"/>
<path d="M246.358 33.4792H224.246V1.2522H228.66V30.9976H246.348L246.358 33.4792Z" fill="#34343A"/>
<path d="M307 1.2522V33.4792H304.024L285.543 5.07194V33.4792H283.013V1.2522H285.642L304.49 29.6108V1.2522H307Z" fill="#34343A"/>
<path d="M258.208 18.2535C258.128 15.4264 257.042 12.283 255.985 9.24182C254.993 6.32227 254.031 3.59735 254.076 1.39795H253.783C251.961 2.20265 250.376 3.44633 249.175 5.01333C248.641 5.73061 248.18 6.49835 247.801 7.30518C248.977 9.43645 250.966 11.9035 252.816 14.2051C254.248 15.9023 255.582 17.678 256.809 19.5235C257.192 19.02 257.666 18.5895 258.208 18.2535Z" fill="#34343A"/>
<path d="M257.077 8.84267C258.103 11.8109 259.16 14.8716 259.348 17.7181C259.873 17.5478 260.422 17.4608 260.975 17.4602C261.531 17.4607 262.084 17.5478 262.612 17.7181C262.796 14.8716 263.852 11.8109 264.879 8.84267C265.985 5.65549 267.036 2.61429 266.635 0.570604C265.003 0.173571 263.326 -0.0177416 261.645 0.00129218C260.881 0.00129218 260.157 0.0353521 259.462 0.0986091C258.045 0.173111 256.642 0.418245 255.286 0.828497C255.008 2.86732 256.015 5.78687 257.077 8.84267Z" fill="#34343A"/>
<path d="M256.03 24.3458L255.956 24.0684C255.425 22.0004 251.898 19.7329 248.515 17.5432C247.692 17.0129 246.839 16.463 246.035 15.9326C246.035 16.3219 246.006 16.7112 246.006 17.115C246.005 18.318 246.071 19.52 246.204 20.7158C247.196 21.0808 248.258 21.4408 249.324 21.8009C251.608 22.5197 253.847 23.3694 256.03 24.3458Z" fill="#34343A"/>
<path d="M251.894 14.8919C250.218 12.9064 248.666 10.8232 247.246 8.65381C247.038 9.23286 246.863 9.8225 246.72 10.4201C246.409 11.7915 246.204 13.1838 246.105 14.5854C247.028 15.2277 248.045 15.8846 249.056 16.5317C251.651 18.2056 254.324 19.9379 255.847 21.6604C255.913 21.3271 256.012 21.0011 256.144 20.6872C255.237 19.0377 253.615 17.0232 251.894 14.8919Z" fill="#34343A"/>
<path d="M269.135 14.206C271.173 11.6708 273.386 8.92645 274.487 6.65894C274.175 6.06869 273.82 5.50116 273.425 4.96073C272.242 3.42227 270.69 2.19385 268.907 1.38428H267.885C267.929 3.59827 266.972 6.33779 265.97 9.23301C264.914 12.2645 263.827 15.3933 263.748 18.2398C264.289 18.5744 264.763 19.0032 265.147 19.505C266.371 17.6649 267.703 15.8956 269.135 14.206Z" fill="#34343A"/>
<path d="M258.336 25.6797C258.46 25.7673 258.599 25.8743 258.733 25.9814C259.396 26.4226 260.179 26.6584 260.98 26.6584C261.781 26.6584 262.564 26.4226 263.227 25.9814C263.341 25.8841 263.495 25.7721 263.648 25.6602C264.277 25.1285 264.725 24.4208 264.931 23.6322C265.138 22.8436 265.094 22.0118 264.805 21.2486C264.516 20.4853 263.995 19.8271 263.314 19.3623C262.632 18.8976 261.822 18.6484 260.992 18.6484C260.162 18.6484 259.352 18.8976 258.671 19.3623C257.989 19.8271 257.469 20.4853 257.18 21.2486C256.891 22.0118 256.846 22.8436 257.053 23.6322C257.26 24.4208 257.708 25.1285 258.336 25.6602V25.6797Z" fill="#34343A"/>
<path d="M276.426 20.4577C276.547 19.3263 276.607 18.1893 276.604 17.0516C276.604 16.7402 276.604 16.4336 276.604 16.1222L276.029 15.8691C275.221 16.419 274.338 16.9834 273.49 17.5284C270.082 19.7181 266.545 21.9856 266.025 24.0536L265.95 24.3261C268.126 23.3541 270.359 22.5092 272.636 21.7958C273.941 21.3628 275.285 20.9102 276.426 20.4577Z" fill="#34343A"/>
<path d="M272.894 22.9252C269.874 23.9324 266.446 25.071 264.348 26.5697C264.213 26.6868 264.07 26.7956 263.922 26.8957C263.045 27.4829 262.007 27.7967 260.946 27.7959C259.916 27.7944 258.911 27.491 258.059 26.9249C256.04 25.2608 252.355 24.0297 249.131 22.9495C248.173 22.6283 247.246 22.3218 246.383 22.0104C246.482 22.6186 246.596 23.222 246.73 23.8059C247.153 25.7597 247.99 27.6046 249.185 29.2217C250.391 30.7929 251.983 32.0384 253.813 32.8419C255.738 33.7372 258.133 34.1849 261 34.1849C261.764 34.1849 262.488 34.1508 263.183 34.0876C265.134 34.0121 267.052 33.5746 268.837 32.7981C270.656 31.9859 272.239 30.7396 273.44 29.173C274.64 27.5576 275.485 25.7149 275.92 23.7621C276.069 23.1101 276.188 22.4386 276.292 21.7622C275.226 22.1466 274.085 22.531 272.894 22.9252Z" fill="#34343A"/>
<path d="M272.899 16.5355C274.134 15.7375 275.379 14.9297 276.466 14.1463C276.356 12.8763 276.16 11.6149 275.88 10.3704C275.687 9.55315 275.426 8.75255 275.102 7.97632C273.891 10.1465 271.947 12.5551 270.062 14.8957C268.341 17.0269 266.714 19.0414 265.811 20.6666C265.943 20.9805 266.043 21.3065 266.109 21.6398C267.632 19.9368 270.325 18.2094 272.899 16.5355Z" fill="#34343A"/>
</svg>